<svg xmlns="http://www.w3.org/2000/svg" viewBox="0 0 64 64" fill="none">
  <defs>
    <linearGradient id="a" x1="6" y1="6" x2="58" y2="58" gradientUnits="userSpaceOnUse">
      <stop offset="0" stop-color="#1AE4FF"/>
      <stop offset="0.55" stop-color="#1D7FFF"/>
      <stop offset="1" stop-color="#2046C8"/>
    </linearGradient>
    <linearGradient id="b" x1="8" y1="12" x2="56" y2="44" gradientUnits="userSpaceOnUse">
      <stop offset="0" stop-color="#EEFDFF"/>
      <stop offset="1" stop-color="#B8F0FF"/>
    </linearGradient>
    <linearGradient id="c" x1="14" y1="18" x2="50" y2="50" gradientUnits="userSpaceOnUse">
      <stop offset="0" stop-color="#90DBFF"/>
      <stop offset="1" stop-color="#D7F8FF"/>
    </linearGradient>
  </defs>
  <rect width="64" height="64" rx="14" fill="url(#a)"/>
  <path d="M20 14h9.5c7.2 0 11.5 3.4 11.5 9.2 0 3.6-1.8 6.3-4.7 7.8 3.9 1.4 6.5 4.6 6.5 9.6 0 6.2-4.8 10.4-12.6 10.4H20V14zm9.1 14.1c3.4 0 5.3-1.5 5.3-4.2 0-2.5-1.9-3.9-5.3-3.9h-2.8v8.1h2.8zm1.3 16.8c3.9 0 6-1.6 6-4.8 0-3-2.2-4.6-6-4.6h-4.1v9.4h4.1z" fill="url(#b)"/>
  <path d="M45.6 13.5c2.2 0 4 1.8 4 4s-1.8 4-4 4a4 4 0 1 1 0-8zM50.5 23.8l-6.4 8.3 5.2 5.3-2.2 2.3-5.4-5.5-5.9 7.7-2.5-1.9 6.1-7.9-4.8-4.9 2.2-2.3 5 5.1 6.1-7.9 2.6 1.8z" fill="url(#c)" fill-opacity=".98"/>
</svg>
