<svg xmlns="http://www.w3.org/2000/svg" viewBox="0 0 64 64" fill="none">
  <defs>
    <linearGradient id="a" x1="6" y1="6" x2="58" y2="58" gradientUnits="userSpaceOnUse">
      <stop offset="0" stop-color="#14D8FF"/>
      <stop offset="0.55" stop-color="#1D8BFF"/>
      <stop offset="1" stop-color="#0F5BD8"/>
    </linearGradient>
    <linearGradient id="b" x1="8" y1="12" x2="56" y2="44" gradientUnits="userSpaceOnUse">
      <stop offset="0" stop-color="#EBFCFF"/>
      <stop offset="1" stop-color="#B8E8FF"/>
    </linearGradient>
  </defs>
  <rect width="64" height="64" rx="14" fill="url(#a)"/>
  <path d="M8 36c4 0 6-1.6 8-3.2 2.2-1.8 4.4-3.6 9.2-3.6 4.9 0 7.1 1.8 9.4 3.6 2.1 1.6 4.2 3.2 8.6 3.2s6.4-1.6 8.5-3.2c1.2-.9 2.4-1.9 4.3-2.6v6.7c-1.4.6-2.4 1.4-3.5 2.2-2.2 1.7-4.7 3.7-9.3 3.7s-7.2-2-9.4-3.7c-2.1-1.7-4.1-3.1-8.6-3.1-4.4 0-6.4 1.4-8.6 3.1-2.2 1.7-4.7 3.7-9.4 3.7V36z" fill="url(#b)" fill-opacity=".95"/>
  <path d="M8 25.5c4 0 6-1.6 8-3.2 2.2-1.8 4.4-3.6 9.2-3.6 4.9 0 7.1 1.8 9.4 3.6 2.1 1.6 4.2 3.2 8.6 3.2s6.4-1.6 8.5-3.2c1.1-.9 2.4-1.9 4.3-2.6v5.8c-1.5.6-2.5 1.4-3.6 2.2-2.2 1.7-4.6 3.7-9.2 3.7s-7.2-2-9.4-3.7c-2.2-1.7-4.2-3.1-8.7-3.1-4.4 0-6.4 1.4-8.6 3.1-2.2 1.7-4.7 3.7-9.4 3.7v-5.9z" fill="#fff" fill-opacity=".75"/>
  <circle cx="49.5" cy="17" r="4.2" fill="#F7FDFF" fill-opacity=".95"/>
</svg>
