<svg xmlns="http://www.w3.org/2000/svg" viewBox="0 0 64 64" fill="none">
  <defs>
    <linearGradient id="a" x1="6" y1="6" x2="58" y2="58" gradientUnits="userSpaceOnUse">
      <stop offset="0" stop-color="#1AE4FF"/>
      <stop offset="0.55" stop-color="#1D7FFF"/>
      <stop offset="1" stop-color="#2046C8"/>
    </linearGradient>
    <linearGradient id="b" x1="14" y1="10" x2="50" y2="54" gradientUnits="userSpaceOnUse">
      <stop offset="0" stop-color="#EEFDFF"/>
      <stop offset="1" stop-color="#B8F0FF"/>
    </linearGradient>
    <linearGradient id="c" x1="35" y1="15" x2="56" y2="31" gradientUnits="userSpaceOnUse">
      <stop offset="0" stop-color="#9FF6FF"/>
      <stop offset="1" stop-color="#35D7FF"/>
    </linearGradient>
  </defs>
  <rect width="64" height="64" rx="14" fill="url(#a)"/>
  <path d="M31.9 12.8 14.6 51h7.1l4-9h12.6l4 9h7.1L31.9 12.8Zm-3.3 22.9 3.3-7.6 3.3 7.6h-6.6Z" fill="url(#b)"/>
  <path d="M46.7 15.3a4.7 4.7 0 1 0 0 9.4 4.7 4.7 0 0 0 0-9.4Zm0 1.9a2.8 2.8 0 1 1 0 5.6 2.8 2.8 0 0 1 0-5.6ZM42.4 29.1c4.9-1.3 9.8 1.1 12.5 5.7l-1.8 1c-2.2-3.8-6.2-5.7-10.2-4.7l-.5-2Z" fill="url(#c)" fill-opacity=".98"/>
</svg>
